# xmcd
#
# Track frame offsets:
#	150
#	15888
#	30859
#	45871
#	61127
#	77095
#	92887
#	111297
#	126047
#	143921
#	161868
#	175254
#	191654
#	209526
#
# Disc length: 3011 seconds
#
# Revision: 1
# Processed by: cddbd v1.5.2PL0 Copyright (c) Steve Scherf et al.
# Submitted via: EasyCDDAExtractor 7.0.3.1
#
DISCID=b00bc10e
DTITLE=Various Artist - Hitz Country 2007 Vol. 5
DYEAR=2007
DGENRE=Country
TTITLE0=Kenny Chesney - Never Wanted Nothing More
TTITLE1=Brooks and Dunn - Proud Of the House We Built
TTITLE2=Trisha Yearwood - Heaven, Heartache and the Power of Love
TTITLE3=Dierks Bentley - Free and Easy (Down the Road I Go)
TTITLE4=Josh Turner - Firecracker
TTITLE5=Sara Evans - As If
TTITLE6=Billy Currington - Tangled Up
TTITLE7=Emerson Drive - You Still Own Me
TTITLE8=Pat Green - Way Back Texas
TTITLE9=Clint Black - The Strong One
TTITLE10=Danielle Peck - Bad For Me
TTITLE11=Blake Shelton - The More I Drink
TTITLE12=Tracy Lawrence - Till I Was A Daddy Too
TTITLE13=Gary Allan - Watching Airplanes
EXTD=
EXTT0=
EXTT1=
EXTT2=
EXTT3=
EXTT4=
EXTT5=
EXTT6=
EXTT7=
EXTT8=
EXTT9=
EXTT10=
EXTT11=
EXTT12=
EXTT13=
PLAYORDER=
